{"materials":[{"name":"01_-_Default_alpha","pbrMetallicRoughness":{"baseColorTexture":{"index":0,"texCoord":0,"extensions":{"textureExtensions":[{"index":0,"texCoord":0,"extensions":{"multiFramesAnim":{"animSpeed":30.0,"tilesX":8,"tilesY":8}}}]}},"baseColorFactor":[1.0,1.0,1.0,1.0],"metallicFactor":0.099999994,"roughnessFactor":1},"alphaMode":"BLEND"}],"images":[{"uri":"GJWVQT1OCQ71QAT7RWW7VC88UTWZ7YQU2.png"}],"textures":[{"name":"smd_1_com.png","sampler":0,"source":0}],"meshes":[{"name":"烟01","primitives":[{"material":0,"mode":4,"indices":0,"attributes":{"NORMAL":2,"POSITION":1,"TEXCOORD_0":3}}]}],"buffers":[{"byteLength":1139,"uri":"T9TOOEYO2UUSR1ZW25JU0PE0V577NOJW0.bin"}],"bufferViews":[{"buffer":0,"target":34963,"byteLength":16,"byteOffset":0},{"buffer":0,"target":34962,"byteLength":24,"byteOffset":36},{"buffer":0,"target":34962,"byteLength":72,"byteOffset":60},{"buffer":0,"target":34962,"byteLength":16,"byteOffset":124}],"accessors":[{"componentType":5123,"type":"SCALAR","bufferView":0,"byteOffset":0,"byteType":1625,"count":8},{"componentType":5126,"type":"VEC3","bufferView":1,"byteOffset":0,"byteType":347,"count":2,"min":[-0.5,-0.5,0.0],"max":[0.5,0.5,0.0]},{"componentType":5126,"type":"VEC3","bufferView":2,"byteOffset":0,"byteType":919,"count":6},{"componentType":5126,"type":"VEC2","bufferView":3,"byteOffset":0,"byteType":709,"count":2}],"nodes":[{"name":"RootNode","translation":[0.0,0.0,0.0],"rotation":[0.0,0.0,0.0,1.0],"scale":[1.0,1.0,1.0],"children":[1]},{"name":"烟01","translation":[0.0,0.0,4.49089618825838E-08],"rotation":[8.14603424714733E-08,0.0,0.0,1.0],"scale":[1.0,1.0,1.0],"mesh":0,"extensions":{"billboard":{"type":"point","axis":"y"}}}],"asset":{"generator":"FBX2glTF","version":"2.0"},"scene":0,"scenes":[{"name":"Root Scene","nodes":[0]}],"samplers":[{}]}
